<svg width="1920" height="1080" viewBox="0 0 1920 1080" xmlns="http://www.w3.org/2000/svg"><rect width="1920" height="1080" fill="#ffffff"/><path d="M 0,1080 C 0,1080 0,180 0,180 C 65.45454545454547,148.3732057416268 130.90909090909093,116.74641148325358 246,114 C 361.09090909090907,111.25358851674642 525.8181818181818,137.38755980861248 712,152 C 898.1818181818182,166.61244019138752 1105.818181818182,169.70334928229664 1211,182 C 1316.181818181818,194.29665071770336 1318.9090909090908,215.79904306220098 1420,217 C 1521.0909090909092,218.20095693779902 1720.5454545454545,199.1004784688995 1920,180 C 1920,180 1920,1080 1920,1080 Z" fill="#185c64" opacity="0.09999999999999999"/><path d="M 0,1080 C 0,1080 0,360 0,360 C 108.04784688995215,362.9569377990431 216.0956937799043,365.9138755980861 339,364 C 461.9043062200957,362.0861244019139 599.6650717703349,355.30143540669854 696,353 C 792.3349282296651,350.69856459330146 847.2440191387559,352.8803827751196 1026,361 C 1204.755980861244,369.1196172248804 1507.358851674641,383.17703349282294 1677,384 C 1846.641148325359,384.82296650717706 1883.3205741626793,372.41148325358853 1920,360 C 1920,360 1920,1080 1920,1080 Z" fill="#185c64" opacity="0.19999999999999998"/><path d="M 0,1080 C 0,1080 0,540 0,540 C 93.55980861244021,531.9425837320574 187.11961722488041,523.8851674641148 306,534 C 424.8803827751196,544.1148325358852 569.0813397129187,572.401913875598 715,588 C 860.9186602870813,603.598086124402 1008.5550239234449,606.5071770334929 1118,600 C 1227.4449760765551,593.4928229665071 1298.6985645933014,577.5693779904307 1426,566 C 1553.3014354066986,554.4306220095693 1736.6507177033493,547.2153110047847 1920,540 C 1920,540 1920,1080 1920,1080 Z" fill="#185c64" opacity="0.3"/><path d="M 0,1080 C 0,1080 0,720 0,720 C 160.93779904306217,707.11004784689 321.87559808612434,694.2200956937799 420,687 C 518.1244019138757,679.7799043062201 553.4354066985646,678.2296650717703 658,677 C 762.5645933014354,675.7703349282297 936.3827751196172,674.8612440191388 1108,688 C 1279.6172248803828,701.1387559808612 1449.0334928229665,728.3253588516747 1584,736 C 1718.9665071770335,743.6746411483253 1819.4832535885166,731.8373205741627 1920,720 C 1920,720 1920,1080 1920,1080 Z" fill="#185c64" opacity="0.39999999999999997"/><path d="M 0,1080 C 0,1080 0,900 0,900 C 61.4641148325359,883.5693779904307 122.9282296650718,867.1387559808612 241,863 C 359.0717703349282,858.8612440191388 533.7511961722487,867.0143540669856 717,860 C 900.2488038277513,852.9856459330144 1092.066985645933,830.8038277511963 1253,843 C 1413.933014354067,855.1961722488037 1543.980861244019,901.7703349282297 1650,917 C 1756.019138755981,932.2296650717703 1838.0095693779904,916.1148325358852 1920,900 C 1920,900 1920,1080 1920,1080 Z" fill="#185c64" opacity="0.49999999999999994"/></svg>